<?xml version="1.0" standalone="no"?>
<!DOCTYPE svg PUBLIC "-//W3C//DTD SVG 20010904//EN"
 "http://www.w3.org/TR/2001/REC-SVG-20010904/DTD/svg10.dtd">
<svg version="1.0" xmlns="http://www.w3.org/2000/svg"
 width="387.000000pt" height="361.000000pt" viewBox="0 0 387.000000 361.000000"
 preserveAspectRatio="xMidYMid meet">

<g transform="translate(0.000000,361.000000) scale(0.100000,-0.100000)"
fill="#595959" stroke="none">
<path d="M1850 3527 c-32 -10 -283 -242 -383 -353 -50 -56 -80 -126 -72 -166
10 -46 73 -101 174 -153 153 -79 217 -144 241 -244 33 -140 -85 -315 -319
-469 -144 -95 -218 -104 -287 -36 -19 20 -73 87 -120 150 -47 64 -104 136
-127 161 -79 86 -162 107 -247 63 -73 -37 -104 -66 -207 -188 -54 -64 -148
-171 -210 -238 -61 -68 -120 -135 -129 -149 -17 -26 -17 -28 0 -37 10 -6 64
-50 120 -98 182 -157 258 -253 292 -368 35 -117 -21 -204 -198 -309 -154 -91
-202 -155 -183 -242 12 -57 88 -156 207 -273 143 -140 199 -173 281 -166 77 6
131 48 242 188 143 180 186 204 287 158 83 -39 177 -126 406 -381 277 -307
319 -341 422 -341 108 0 191 67 337 272 130 181 206 246 281 240 55 -5 73 -43
82 -183 10 -134 31 -194 82 -225 64 -39 178 -20 322 52 90 45 244 150 299 203
155 149 100 311 -144 429 -117 55 -131 76 -137 193 -4 71 -2 86 17 117 28 45
104 115 283 258 143 115 231 201 251 245 17 38 -33 117 -184 288 -161 183
-233 284 -254 358 -28 99 3 155 128 229 101 61 162 120 198 194 28 56 31 71
26 119 -12 121 -135 266 -291 345 -78 39 -98 45 -165 48 -110 5 -172 -20 -260
-106 -37 -37 -88 -95 -114 -129 -92 -123 -166 -107 -343 76 -56 58 -142 153
-191 211 -190 223 -303 294 -413 257z"/>
</g>
</svg>
